<?xml version="1.0" encoding="utf-8"?>
<!-- Generator: Adobe Illustrator 19.2.1, SVG Export Plug-In . SVG Version: 6.00 Build 0)  -->
<svg version="1.1" id="typesafe" xmlns="http://www.w3.org/2000/svg" xmlns:xlink="http://www.w3.org/1999/xlink" x="0px" y="0px"
	 viewBox="0 0 125 151" style="enable-background:new 0 0 125 151;" xml:space="preserve">
<style type="text/css">
	.st0{fill:#BE1E2D;}
	.st1{fill:#ED1C24;}
	.st2{fill:#FFFFFF;}
</style>
<g>
	<polygon class="st0" points="62.5,0 124.8,0.1 113.8,117.5 62.5,150.8 	"/>
</g>
<g>
	<g>
		<polygon class="st1" points="62.5,0 0.2,0.1 11.2,117.5 62.5,150.8 		"/>
	</g>
	<g>
		<g>
			<path class="st2" d="M32,108.4v-7.6h3.5v7.6c0,0.9,0.6,1.4,1.5,1.4c0.9,0,1.4-0.6,1.4-1.4v-7.6H42v7.6c0,2.4-2,4-5,4
				C34,112.4,32,110.8,32,108.4z"/>
			<path class="st2" d="M49.8,100.8c3.6,0,6,2.3,6,5.7c0,3.5-2.3,5.8-6,5.8h-4.7v-11.5H49.8z M49.8,109.5c1.5,0,2.5-1.2,2.5-3
				c0-1.8-1-3-2.5-3h-1.1v6.1H49.8z"/>
			<path class="st2" d="M65.4,112.2l-0.6-1.4h-4l-0.6,1.4h-3.7v-0.2l5.5-11.5h1.7l5.4,11.5v0.2H65.4z M63.8,108.5
				c-0.7-1.7-0.8-2.2-1-3.3c-0.3,1.1-0.4,1.7-1,3.3H63.8z"/>
			<path class="st2" d="M73.5,108.6c0,0.7,0.6,1.2,1.6,1.2c0.9,0,1.6-0.4,1.6-1c0-0.9-1.3-1-2-1c-2.2-0.1-4.4-1.1-4.4-3.5
				c0-2.2,1.9-3.6,4.7-3.6c2.9,0,4.7,1.5,4.7,3.8h-3.3c0.1-0.7-0.5-1.2-1.3-1.2s-1.4,0.4-1.4,1c0,0.5,0.5,0.9,1.6,1
				c2.6,0.2,4.9,0.8,4.9,3.6c0,2.2-2,3.6-5,3.6c-3.1,0-5.1-1.5-5-3.8H73.5z"/>
			<path class="st2" d="M86.2,107.7v4.6h-3.5v-11.5h3.5v4.1h3.2v-4.1H93v11.5h-3.5v-4.6H86.2z"/>
		</g>
		<g>
			<polygon class="st2" points="51.8,92.8 32,73 32,22.5 51.8,22.5 			"/>
			<polygon class="st2" points="92.5,73 52.9,73 52.9,92.8 72.7,92.8 			"/>
			<rect x="72.7" y="22.5" class="st2" width="19.8" height="49.4"/>
		</g>
	</g>
</g>
<path class="st1" d="M62.5,0"/>
</svg>
