<?xml version="1.0" encoding="utf-8"?>
<!-- Generator: Adobe Illustrator 19.2.1, SVG Export Plug-In . SVG Version: 6.00 Build 0)  -->
<svg version="1.1" id="shared_code" xmlns="http://www.w3.org/2000/svg" xmlns:xlink="http://www.w3.org/1999/xlink" x="0px" y="0px"
	 viewBox="0 0 198 118" style="enable-background:new 0 0 198 118;" xml:space="preserve">
<style type="text/css">
	.st0{fill:#ED1C24;}
	.st1{fill:#BE1E2D;}
</style>
<g>
	<g>
		<path class="st0" d="M104.8,110.9L104.8,110.9l-6.8,0v0h-4.6l0,0c-4.3-4.3-10.1-6.7-16.2-6.7H0.3v0c0,4.1,2.3,7.9,6,9.8l5,2.6
			c1.6,0.8,3.3,1.3,5.1,1.3h83.7v0h81.4c1.8,0,3.5-0.4,5.1-1.2l5.1-2.6c3.7-1.9,6-5.7,6-9.8v0H121
			C114.9,104.3,109.1,106.7,104.8,110.9z"/>
		<g>
			<path class="st1" d="M105.9,8.9l-16,6.3l-6.6,15.3l6,14.2l16.6,7.3l16.6,7.3l6,14.2l-6.6,15.3l-16,6.3h61.9V8.9H105.9z
				 M110.6,35.7h-9.1v-9.1h9.1V35.7z"/>
			<rect x="101.5" y="70.7" class="st1" width="9.1" height="9.1"/>
		</g>
	</g>
	<path class="st0" d="M176.8,0L18.6,0l-0.4,103.5l158.9-0.2L176.8,0z M168.9,96.2H26.3V7.9h142.6V96.2z"/>
</g>
</svg>
