<svg xmlns="http://www.w3.org/2000/svg" width="33.22" height="33" viewBox="0 0 33.22 33" id="avsystem">
  <defs>
    <style>
      .cls-1 {
        fill: #f0f0f0;
        fill-rule: evenodd;
      }
    </style>
  </defs>
  <path id="avsystem.svg" class="cls-1" d="M1508.98,75.225A16.633,16.633,0,0,0,1477,81.5a16.39,16.39,0,0,0,.55,4.23h1.82a1.818,1.818,0,0,0,1.35-.98l3.23-8.141a2.745,2.745,0,0,1,5.09,0l5.18,13.03a1.731,1.731,0,0,0,1.46,1.037h1.12a0.742,0.742,0,0,1,.63.442l0.46,1.148a0.3,0.3,0,0,1-.28.454h-3.48a4.574,4.574,0,0,1-3.86-2.727l-3.69-9.283a21.425,21.425,0,0,1-.88-2.759,23.165,23.165,0,0,1-.89,2.759l-1.78,4.473a4.329,4.329,0,0,1-3.66,2.59h-1.12a16.633,16.633,0,0,0,31.98-6.274,16.4,16.4,0,0,0-.55-4.23h-1.82a1.818,1.818,0,0,0-1.35.98l-3.23,8.141a2.745,2.745,0,0,1-5.09,0l-5.18-13.03a1.731,1.731,0,0,0-1.46-1.037h-1.12a0.741,0.741,0,0,1-.63-0.442l-0.46-1.148a0.3,0.3,0,0,1,.28-0.455h3.48a4.574,4.574,0,0,1,3.86,2.727l3.69,9.283a21.455,21.455,0,0,1,.88,2.76,23.2,23.2,0,0,1,.89-2.76l1.78-4.473a4.329,4.329,0,0,1,3.66-2.59h1.12Z" transform="translate(-1477 -65)"/>
</svg>
