<?xml version="1.0" encoding="utf-8"?>
<!-- Generator: Adobe Illustrator 19.2.1, SVG Export Plug-In . SVG Version: 6.00 Build 0)  -->
<svg version="1.1" id="compiled" xmlns="http://www.w3.org/2000/svg" xmlns:xlink="http://www.w3.org/1999/xlink" x="0px" y="0px"
	 viewBox="0 0 150 139" style="enable-background:new 0 0 150 139;" xml:space="preserve" >
<style type="text/css">
	.st0{fill:#ED1C24;}
	.st1{fill:#BE1E2D;}
	.st2{fill:#FFFFFF;}
</style>
<g>
	<path class="st0" d="M0.3,11.8v127H130v-127H0.3z M8.7,19.2c-1.1,0-2-0.9-2-2c0-1.1,0.9-2,2-2c1.1,0,2,0.9,2,2
		C10.7,18.3,9.8,19.2,8.7,19.2z M15.3,19.2c-1.1,0-2-0.9-2-2c0-1.1,0.9-2,2-2c1.1,0,2,0.9,2,2C17.3,18.3,16.4,19.2,15.3,19.2z
		 M22,19.2c-1.1,0-2-0.9-2-2c0-1.1,0.9-2,2-2c1.1,0,2,0.9,2,2C24,18.3,23.1,19.2,22,19.2z"/>
	<path class="st1" d="M20,0.6v127h129.7V0.6H20z M28.4,8c-1.1,0-2-0.9-2-2c0-1.1,0.9-2,2-2c1.1,0,2,0.9,2,2C30.4,7.1,29.5,8,28.4,8z
		 M35.1,8c-1.1,0-2-0.9-2-2c0-1.1,0.9-2,2-2c1.1,0,2,0.9,2,2C37,7.1,36.2,8,35.1,8z M41.7,8c-1.1,0-2-0.9-2-2c0-1.1,0.9-2,2-2
		c1.1,0,2,0.9,2,2C43.7,7.1,42.8,8,41.7,8z"/>
	<g>
		<g>
			<g>
				<polygon class="st2" points="124.6,48.7 92.9,58.5 83.2,48.7 44.2,48.7 22.3,48.7 61.3,77.9 46.7,126.6 71,97.4 110,77.9 
					117.3,63.3 139.2,63.3 				"/>
				<g>
					<polyline class="st2" points="117.3,63.3 139.2,63.3 124.6,48.7 95.2,61.9 					"/>
					<polyline class="st2" points="124.6,48.7 110,77.9 71,97.4 46.7,126.6 61.3,77.9 22.3,48.7 					"/>
					<polygon class="st2" points="109.9,77.9 61.3,77.9 32,29.2 83.2,48.7 					"/>
				</g>
			</g>
		</g>
		<polygon class="st0" points="119.4,63.3 124.6,48.7 117.3,63.3 		"/>
		<polygon class="st0" points="110.9,76.1 83.2,48.7 110,77.9 		"/>
		<polygon class="st0" points="61.3,77.9 43.7,48.7 58.1,75.6 		"/>
		<polygon class="st0" points="110,77.9 61.3,77.9 60.6,80.1 		"/>
	</g>
</g>
</svg>
