<svg xmlns="http://www.w3.org/2000/svg" width="32.96" height="31.875" viewBox="0 0 32.96 31.875" id="github">
  <defs>
    <style>
      .cls-1 {
        fill: #fff;
      }
    </style>
  </defs>
  <path id="github.svg" class="cls-1" d="M1335.36,65a16.317,16.317,0,0,0-5.21,31.837,0.832,0.832,0,0,0,1.13-.787c0-.388-0.02-1.415-0.03-2.779-4.58.987-5.55-2.19-5.55-2.19a4.341,4.341,0,0,0-1.83-2.39c-1.5-1.014.11-.993,0.11-0.993a3.459,3.459,0,0,1,2.53,1.683,3.531,3.531,0,0,0,4.8,1.358,3.483,3.483,0,0,1,1.04-2.184c-3.66-.412-7.51-1.814-7.51-8.074a6.261,6.261,0,0,1,1.7-4.383,5.8,5.8,0,0,1,.16-4.323s1.39-.439,4.53,1.675a15.792,15.792,0,0,1,8.26,0c3.15-2.114,4.53-1.675,4.53-1.675a5.8,5.8,0,0,1,.16,4.323,6.261,6.261,0,0,1,1.7,4.383c0,6.276-3.86,7.656-7.53,8.061a3.887,3.887,0,0,1,1.12,3.025c0,2.184-.02,3.946-0.02,4.481a0.823,0.823,0,0,0,1.13.785A16.318,16.318,0,0,0,1335.36,65Z" transform="translate(-1318.88 -65)"/>
</svg>
