<svg xmlns="http://www.w3.org/2000/svg" width="34" height="31" viewBox="0 0 34 31" id="todomvc">
  <defs>
    <style>
      .cls-1 {
        fill: #fff;
        fill-rule: evenodd;
      }
    </style>
  </defs>
  <path id="todomvc.svg" class="cls-1" d="M1376.57,68.066h3.13V66h-3.13a4.5,4.5,0,0,0-2.44.717l1.09,1.747a2.477,2.477,0,0,1,1.35-.4h0Zm-2.54,2.584a2.658,2.658,0,0,1,.23-1.08l-1.84-.865a4.644,4.644,0,0,0-.42,1.945v3.658h2.03V70.649h0ZM1372,76.395h2.03V81.6H1372V76.395Zm27.35-7.866c0.61-.394,1.22-0.767,1.82-1.116a4.636,4.636,0,0,0-1.18-.9,4.562,4.562,0,0,0-2.1-.516h-1.8v2.067h1.8a2.514,2.514,0,0,1,1.46.463h0ZM1372,83.69h2.03v5.218H1372V83.69ZM1381.75,66h5.12v2.067h-5.12V66Zm7.17,0h5.12v2.067h-5.12V66Zm2.26,28.934h5.12V97h-5.12V94.933Zm9.25-17.195h2.03v5.218h-2.03V77.738Zm0,7.306h2.03v5.208h-2.03V85.044Zm-26.4,7.306V91H1372v1.354a4.66,4.66,0,0,0,2.36,4.072l0.98-1.809a2.591,2.591,0,0,1-1.31-2.263h0Zm26.4-18.069v1.371h2.03v-3.07c-0.67.506-1.34,1.073-2.03,1.7h0Zm0,18.069a2.572,2.572,0,0,1-2.21,2.562l0.26,2.05a4.534,4.534,0,0,0,2.83-1.529,4.7,4.7,0,0,0,1.15-3.083V92.339h-2.03v0.011h0Zm-23.61,2.583h5.13V97h-5.13V94.933Zm7.18,0h5.13V97H1384V94.933Zm-7.35-12.479,9.53,9.693S1395.7,73.5,1406,69.315l-0.39-2.952c-5.61,2.264-14.12,8.218-20.4,17.321l-6.63-3.986-1.93,2.756" transform="translate(-1372 -66)"/>
</svg>
